<?xml version="1.0" encoding="UTF-8"?>
<svg id="Layer_2" data-name="Layer 2" xmlns="http://www.w3.org/2000/svg" viewBox="0 0 150.77 73.06">
  <defs>
    <style>
      .cls-1 {
        fill: #368c65;
      }

      .cls-2 {
        fill: #fff;
      }
    </style>
  </defs>
  <g id="Layer_1-2" data-name="Layer 1">
    <g>
      <path class="cls-1" d="M138.99,38.36c1.42-13.84-3.18-10.24-2.91-16.5.67-15.99-9.14-12.47-10.81-16.07-1.38-2.98-3.41-5.95-6.7-5.78-1.9.06-3.62,1.02-5.48,1.3-2.37.53-5.01.12-7.29,1.28-1.4.72-2.5,1.94-3.07,3.41-.3.75-.54,1.7-1.31,2-.43.19-1.07.16-1.59.13-3.88-.22-7.87.77-11.25,2.93-1.1.85-2.23.66-3.51.05-12.92-6.21-20.85-.23-23.01-1.43-9.75-5.43-17.49-.55-17.96-1.12-1.98-3.8-5.46-5.32-9.62-3.85-.97.21-1.95.02-2.89-.27-3.6-1.08-7.64-1.32-11.21-.02-15.12,5.49-10.68,18.75-9.75,20.59.55,1.29-.38,2.43-.98,3.51-1.44,2.63-1.57,6.02-.52,8.74.08.34.33.85.23,1.13-.06.27-.37.34-.87.31-2.49-.39-5.36.69-6.71,2.93-2.08,3.22-1.88,7.83-.24,10.78.71,1.27-7.39,17.62,7.93,19.95,2.7.41,5.25-.16,7.74-.34.73.01,8.25,2.47,16.49-.13,3.5-1.11,8.88,3.16,23.68-.1,3.21-.71,8.63,1.6,18,.78,6.49-.57,33.54-3.64,47.89-.6,27.94,5.93,29.61-13.28,26.27-24.83-3.06-10.56-10.57-8.32-10.52-8.75Z"/>
      <g>
        <g>
          <g>
            <g>
              <path class="cls-2" d="M51,35.29l-11.69-.04v-.31c.42-.12.82-.47,1.19-1.06.37-.58.56-1.25.56-2v-12.05c0-.84-.19-1.53-.56-2.07-.38-.54-.77-.87-1.19-.99v-.36c1.14,0,2.29-.06,3.46-.18.99-.12,2.07-.3,3.24-.54,1.17-.24,2.25-.61,3.24-1.12v2.02c.21-.42.5-.76.88-1.03.37-.27.76-.47,1.17-.61s.8-.23,1.19-.27c.39-.05.7-.07.94-.07,1.53,0,2.83.24,3.89.72,1.06.48,1.92,1.16,2.56,2.05.64.88,1.11,1.96,1.39,3.24.28,1.27.43,2.71.43,4.29v6.97c0,.75.19,1.42.56,2,.37.58.77.94,1.19,1.06v.31h-7.24c-.69,0-1.21-.07-1.57-.23-.36-.15-.62-.37-.79-.65-.17-.28-.26-.64-.29-1.06-.03-.42-.04-.9-.04-1.44v-6.97c0-1.2-.07-2.31-.2-3.33-.13-1.02-.31-1.9-.54-2.65-.22-.75-.49-1.33-.79-1.73-.3-.4-.63-.61-.99-.61s-.65.29-.88.88c-.22.58-.4,1.24-.52,1.98-.12.74-.2,1.45-.25,2.16-.04.7-.08,1.16-.11,1.37v8.9c0,.78.19,1.45.56,2.02.37.57.77.91,1.19,1.03v.36Z"/>
              <path class="cls-2" d="M69.35,35.25c-.63,0-1.28-.12-1.96-.36-.67-.24-1.3-.58-1.87-1.03-.57-.45-1.03-1-1.39-1.66-.36-.66-.54-1.41-.54-2.25,0-1.23.29-2.19.88-2.88.58-.69,1.32-1.24,2.2-1.64.88-.4,1.86-.75,2.92-1.03,1.06-.28,2.09-.64,3.08-1.06.99-.42,1.87-.97,2.63-1.66.76-.69,1.28-1.66,1.55-2.92.15-.78,0-1.48-.45-2.09-.45-.61-.99-.92-1.62-.92-.48,0-.85.15-1.12.45s-.49.67-.67,1.12c-.18.45-.35.93-.52,1.45-.17.52-.37,1.01-.61,1.45-.24.45-.56.82-.97,1.12-.4.3-.94.45-1.6.45-.54,0-1.01-.1-1.42-.31-.4-.21-.76-.48-1.06-.8-.3-.33-.54-.71-.72-1.14-.18-.43-.33-.87-.45-1.32-.27-1.04-.38-2.25-.31-3.62.27.81.7,1.27,1.28,1.39.58.12,1.28.08,2.09-.13.81-.21,1.72-.46,2.72-.76,1-.3,2.06-.45,3.17-.45,1.29,0,2.56.2,3.8.61,1.24.4,2.36.98,3.35,1.73.99.75,1.78,1.68,2.38,2.79.6,1.11.9,2.35.9,3.73v8.41c0,.75.19,1.42.56,2,.37.58.77.94,1.19,1.06v.31l-7.38.04c-.69,0-1.21-.16-1.55-.47-.35-.31-.59-.65-.74-1.01-.18-.42-.27-.91-.27-1.48-.12.12-.29.34-.49.65-.21.31-.58.65-1.1.99-.53.34-1.26.65-2.2.9-.94.26-2.18.38-3.71.38ZM76.86,21.36c-.24.96-.62,1.84-1.15,2.64-.52.8-1.06,1.57-1.6,2.32-.54.75-1,1.51-1.39,2.26-.39.75-.58,1.55-.58,2.39,0,.42.06.76.18,1.02.12.26.27.45.45.59.18.14.36.22.54.25.18.03.33.05.45.05.33,0,.67-.13,1.01-.38.34-.26.67-.55.97-.88.3-.33.55-.68.74-1.04.19-.36.32-.65.38-.86v-8.35Z"/>
              <path class="cls-2" d="M98.4,35.29c-1.77,0-3.36-.27-4.77-.81-1.41-.54-2.61-1.28-3.6-2.23-.99-.94-1.75-2.05-2.27-3.31-.52-1.26-.79-2.61-.79-4.05,0-1.56.32-2.97.97-4.25.64-1.27,1.5-2.36,2.56-3.26,1.06-.9,2.28-1.6,3.64-2.09s2.77-.74,4.21-.74c1.02,0,1.99.11,2.92.31.93.21,1.78.38,2.54.52s1.42.17,1.98.11c.55-.06,1-.37,1.33-.94.06,1.37-.02,2.58-.22,3.62-.18.89-.52,1.71-1.01,2.46-.49.75-1.25,1.12-2.27,1.12-.63,0-1.13-.15-1.51-.45-.38-.3-.67-.67-.9-1.12-.22-.45-.4-.94-.52-1.46-.12-.52-.25-1.01-.38-1.46s-.31-.82-.52-1.12c-.21-.3-.49-.45-.85-.45-.6,0-1.12.18-1.57.54-.45.36-.82.83-1.12,1.42-.3.59-.53,1.26-.7,2.03-.17.77-.25,1.57-.25,2.41,0,1.23.21,2.32.63,3.25.42.93.98,1.73,1.69,2.39.7.66,1.51,1.16,2.43,1.49.91.33,1.88.5,2.9.5,1.11,0,2.05-.1,2.83-.29.78-.19,1.53-.64,2.25-1.33.03-.03.07-.05.13-.05h.13c-.33,1.05-.81,2.02-1.44,2.9-.63.88-1.38,1.65-2.25,2.29-.87.65-1.83,1.15-2.88,1.51-1.05.36-2.16.54-3.33.54Z"/>
              <path class="cls-2" d="M129.48,35.29c-.72,0-1.41,0-2.07-.02-.66-.01-1.08-.02-1.26-.02-1.35,0-2.29-.27-2.81-.81-.53-.54-.86-1.21-1.01-2.02-.15-.81-.2-1.7-.13-2.68.06-.97.03-1.89-.09-2.74s-.44-1.6-.97-2.23c-.53-.63-1.45-1.02-2.77-1.17v8.27c0,.78.19,1.45.56,2.02.37.57.77.91,1.19,1.03v.36l-11.69-.04v-.31c.42-.12.82-.47,1.19-1.06.37-.58.56-1.25.56-2V11.64c0-.81-.19-1.49-.56-2.05-.38-.55-.77-.88-1.19-.97v-.36c1.14-.03,2.29-.1,3.46-.22.99-.12,2.07-.3,3.24-.54,1.17-.24,2.25-.6,3.24-1.08v15.92c.87-.63,1.57-1.26,2.11-1.89.54-.63.97-1.23,1.28-1.8.31-.57.58-1.09.79-1.57.21-.48.43-.9.67-1.26.24-.36.54-.65.9-.88.36-.23.85-.35,1.48-.38.63-.03,1.18.04,1.64.2.46.17.88.4,1.24.72.36.31.66.67.9,1.08.24.4.43.82.58,1.24.36.99.57,2.13.63,3.42-.27-.84-.79-1.37-1.57-1.6-.78-.22-1.67-.25-2.68-.07-1,.18-2.07.52-3.19,1.03-1.12.51-2.18,1.08-3.17,1.71,2.04,0,3.71.16,5.01.47,1.3.31,2.35.73,3.13,1.26.78.52,1.34,1.14,1.69,1.84.34.7.58,1.43.7,2.18.12.75.17,1.49.16,2.23-.02.74,0,1.42.05,2.07.04.65.17,1.2.38,1.66.21.46.6.8,1.17,1.01v.27h-2.79Z"/>
            </g>
            <g>
              <path class="cls-2" d="M11,65.67c-.63,0-1.28-.12-1.96-.36-.67-.24-1.3-.58-1.87-1.03-.57-.45-1.03-1-1.39-1.66-.36-.66-.54-1.41-.54-2.25,0-1.23.29-2.19.88-2.88.58-.69,1.32-1.24,2.2-1.64.88-.4,1.86-.75,2.92-1.03,1.06-.28,2.09-.64,3.08-1.06.99-.42,1.87-.97,2.63-1.66.76-.69,1.28-1.66,1.55-2.92.15-.78,0-1.48-.45-2.09-.45-.61-.99-.92-1.62-.92-.48,0-.85.15-1.12.45s-.49.67-.67,1.12c-.18.45-.35.93-.52,1.45-.17.52-.37,1.01-.61,1.45-.24.45-.56.82-.97,1.12-.4.3-.94.45-1.6.45-.54,0-1.01-.1-1.42-.31-.4-.21-.76-.48-1.06-.8-.3-.33-.54-.71-.72-1.14-.18-.43-.33-.87-.45-1.32-.27-1.04-.38-2.25-.31-3.62.27.81.7,1.27,1.28,1.39.58.12,1.28.08,2.09-.13.81-.21,1.72-.46,2.72-.76,1-.3,2.06-.45,3.17-.45,1.29,0,2.56.2,3.8.61,1.24.4,2.36.98,3.35,1.73.99.75,1.78,1.68,2.38,2.79.6,1.11.9,2.35.9,3.73v8.41c0,.75.19,1.42.56,2,.37.58.77.94,1.19,1.06v.31l-7.38.04c-.69,0-1.21-.16-1.55-.47-.35-.31-.59-.65-.74-1.01-.18-.42-.27-.91-.27-1.48-.12.12-.29.34-.49.65-.21.31-.58.65-1.1.99-.53.34-1.26.65-2.2.9-.94.26-2.18.38-3.71.38ZM18.51,51.78c-.24.96-.62,1.84-1.15,2.64-.52.8-1.06,1.57-1.6,2.32-.54.75-1,1.51-1.39,2.26-.39.75-.58,1.55-.58,2.39,0,.42.06.76.18,1.02.12.26.27.45.45.59.18.14.36.22.54.25.18.03.33.05.45.05.33,0,.67-.13,1.01-.38.34-.26.67-.55.97-.88.3-.33.55-.68.74-1.04.19-.36.32-.65.38-.86v-8.35Z"/>
              <path class="cls-2" d="M43.86,65.72c-.77,0-1.34-.1-1.7-.29-.36-.19-.61-.49-.76-.88-.24.33-.61.6-1.1.81-.49.21-1.1.31-1.82.31-3.12,0-5.52-.93-7.22-2.79-1.69-1.86-2.54-4.38-2.54-7.56s.85-5.69,2.54-7.53c1.69-1.84,4.1-2.77,7.22-2.77.48,0,1,.09,1.55.27.55.18.94.44,1.15.76v-2.74h.05v-1.26c0-.81-.19-1.49-.56-2.05-.38-.55-.77-.88-1.19-.97v-.36c1.14-.03,2.29-.1,3.45-.22.98-.12,2.06-.3,3.22-.54,1.16-.24,2.24-.6,3.22-1.08v25.45c0,.75.18,1.42.54,2,.36.58.75.94,1.17,1.06v.31l-7.21.04ZM39.65,64.28c.42,0,.76-.25,1.03-.76.27-.51.43-.99.49-1.44v-13.45c-.06-.45-.22-.93-.49-1.44-.27-.51-.61-.76-1.03-.76-.36,0-.69.24-.99.72-.3.48-.55,1.12-.76,1.93-.21.81-.38,1.75-.49,2.83-.12,1.08-.18,2.22-.18,3.42s.06,2.38.18,3.46c.12,1.08.28,2.02.49,2.83.21.81.46,1.45.76,1.93.3.48.63.72.99.72Z"/>
              <path class="cls-2" d="M62.81,65.72c-1.77,0-3.36-.27-4.77-.81-1.41-.54-2.61-1.28-3.6-2.23-.99-.94-1.75-2.05-2.27-3.31-.52-1.26-.79-2.61-.79-4.05s.32-2.78.97-4.02c.64-1.24,1.5-2.34,2.56-3.28,1.06-.94,2.28-1.69,3.64-2.23,1.36-.54,2.77-.81,4.21-.81,2.61,0,4.62.31,6.05.92,1.42.61,2.37,1.37,2.83,2.27.46.9.49,1.86.09,2.88-.4,1.02-1.13,1.92-2.18,2.7-1.05.78-2.38,1.36-4,1.73-1.62.38-3.4.38-5.35.02.57,1.5,1.51,2.65,2.81,3.44,1.3.8,2.75,1.19,4.34,1.19,1.11,0,2.05-.1,2.83-.29.78-.19,1.53-.64,2.25-1.33.03-.03.07-.05.13-.05h.13c-.33,1.05-.81,2.02-1.44,2.9-.63.88-1.38,1.65-2.25,2.29-.87.65-1.83,1.15-2.88,1.51-1.05.36-2.16.54-3.33.54ZM63.3,46.11c-.57,0-1.08.18-1.53.54-.45.36-.82.83-1.12,1.42-.3.58-.53,1.26-.7,2.02-.17.76-.25,1.57-.25,2.41,0,.75.06,1.41.18,1.98.72-.06,1.36-.31,1.91-.76.55-.45,1.02-.98,1.39-1.6.37-.61.67-1.27.88-1.98.21-.7.32-1.36.34-1.96.01-.6-.07-1.09-.25-1.48-.18-.39-.46-.58-.85-.58Z"/>
              <path class="cls-2" d="M84.89,65.72l-11.69-.04v-.31c.42-.12.82-.47,1.19-1.06.37-.58.56-1.25.56-2v-12.05c0-.84-.19-1.53-.56-2.07-.38-.54-.77-.87-1.19-.99v-.36c1.14,0,2.29-.06,3.46-.18.99-.12,2.07-.3,3.24-.54,1.17-.24,2.25-.61,3.24-1.12v2.02c.2-.42.49-.76.87-1.03s.77-.47,1.17-.61c.4-.13.8-.23,1.19-.27.39-.05.7-.07.95-.07,1.68,0,3.07.27,4.16.81,1.1.54,1.96,1.33,2.59,2.38.21-.42.46-.82.74-1.21.28-.39.63-.73,1.05-1.01.42-.28.94-.52,1.57-.7.63-.18,1.4-.27,2.33-.27,1.52,0,2.82.24,3.88.72,1.06.48,1.91,1.16,2.55,2.05.64.88,1.11,1.96,1.39,3.24.28,1.27.43,2.71.43,4.29h.05v6.97c0,.75.18,1.42.54,2,.36.58.75.94,1.17,1.06v.31h-7.21c-.69,0-1.21-.07-1.57-.23-.36-.15-.62-.37-.78-.65-.16-.28-.26-.64-.29-1.06-.03-.42-.04-.9-.04-1.44v-6.97c0-1.2-.07-2.32-.2-3.37-.13-1.05-.31-1.96-.54-2.72-.22-.76-.49-1.36-.79-1.8-.3-.43-.63-.65-.99-.65-.45,0-.79.3-1.01.9-.22.6-.4,1.29-.52,2.07-.12.78-.19,1.53-.2,2.25-.02.72-.04,1.18-.07,1.39.03.33.04.65.04.97v7.94c0,.75.19,1.42.56,2,.37.58.77.94,1.19,1.06v.31h-7.24c-.69,0-1.21-.07-1.57-.23-.36-.15-.62-.37-.79-.65-.17-.28-.26-.64-.29-1.06-.03-.42-.04-.9-.04-1.44v-6.97c0-1.2-.07-2.31-.2-3.33-.13-1.02-.31-1.9-.54-2.65-.22-.75-.49-1.33-.79-1.73-.3-.4-.63-.61-.99-.61s-.65.29-.88.88c-.22.58-.4,1.24-.52,1.98-.12.74-.2,1.45-.25,2.16-.04.7-.08,1.16-.11,1.37v8.9c0,.78.19,1.45.56,2.02.37.57.77.91,1.19,1.03v.36Z"/>
              <path class="cls-2" d="M122.93,65.72l-11.69-.04v-.31c.42-.12.82-.47,1.19-1.06.37-.58.56-1.25.56-2v-12.05c0-.84-.19-1.53-.56-2.07-.38-.54-.77-.87-1.19-.99v-.36c1.14,0,2.29-.06,3.46-.18.99-.12,2.07-.3,3.24-.54,1.17-.24,2.25-.61,3.24-1.12v17.31c0,.78.19,1.45.56,2.02.37.57.77.91,1.19,1.03v.36ZM116.68,44.99c-1.14,0-2.11-.39-2.9-1.17-.79-.78-1.19-1.74-1.19-2.88,0-.57.1-1.1.31-1.6.21-.49.5-.93.88-1.3s.81-.67,1.3-.88c.49-.21,1.03-.31,1.6-.31s1.1.11,1.6.31c.49.21.93.5,1.3.88.37.38.67.81.88,1.3.21.49.31,1.03.31,1.6,0,1.14-.4,2.1-1.19,2.88-.79.78-1.76,1.17-2.9,1.17Z"/>
              <path class="cls-2" d="M134.67,65.72c-1.77,0-3.36-.27-4.77-.81-1.41-.54-2.61-1.28-3.6-2.23-.99-.94-1.75-2.05-2.27-3.31-.52-1.26-.79-2.61-.79-4.05,0-1.56.32-2.97.97-4.25.64-1.27,1.5-2.36,2.56-3.26,1.06-.9,2.28-1.6,3.64-2.09s2.77-.74,4.21-.74c1.02,0,1.99.11,2.92.31.93.21,1.78.38,2.54.52s1.42.17,1.98.11c.55-.06,1-.37,1.33-.94.06,1.37-.02,2.58-.22,3.62-.18.89-.52,1.71-1.01,2.46-.49.75-1.25,1.12-2.27,1.12-.63,0-1.13-.15-1.51-.45-.38-.3-.67-.67-.9-1.12-.22-.45-.4-.94-.52-1.46-.12-.52-.25-1.01-.38-1.46s-.31-.82-.52-1.12c-.21-.3-.49-.45-.85-.45-.6,0-1.12.18-1.57.54-.45.36-.82.83-1.12,1.42-.3.59-.53,1.26-.7,2.03-.17.77-.25,1.57-.25,2.41,0,1.23.21,2.32.63,3.25.42.93.98,1.73,1.69,2.39.7.66,1.51,1.16,2.43,1.49.91.33,1.88.5,2.9.5,1.11,0,2.05-.1,2.83-.29.78-.19,1.53-.64,2.25-1.33.03-.03.07-.05.13-.05h.13c-.33,1.05-.81,2.02-1.44,2.9-.63.88-1.38,1.65-2.25,2.29-.87.65-1.83,1.15-2.88,1.51-1.05.36-2.16.54-3.33.54Z"/>
            </g>
          </g>
          <path class="cls-2" d="M37.2,27.35c-.72-1.21-1.62-2.27-2.71-3.18-1.09-.9-2.26-1.72-3.51-2.44-1.25-.72-2.42-1.45-3.51-2.19-1.09-.74-1.99-1.53-2.71-2.39-.72-.86-1.08-1.9-1.08-3.13,0-.86.21-1.55.62-2.07.41-.52.97-.78,1.67-.78.77,0,1.33.19,1.7.58.37.38.64.86.83,1.43.18.57.33,1.19.44,1.86.11.68.28,1.3.5,1.86.23.57.57,1.04,1.03,1.4.46.37,1.15.55,2.06.55.7,0,1.32-.12,1.84-.37.52-.25.96-.58,1.31-.99s.64-.87.87-1.38c.23-.51.41-1.04.53-1.59.27-1.12.39-2.4.34-3.84,0-.15-.2-.21-.28-.08-.49.76-1.06,1.21-1.69,1.32-.75.14-1.6.08-2.55-.18-.95-.26-1.99-.59-3.12-.99-1.13-.4-2.34-.6-3.63-.6-1.1,0-2.28.11-3.54.32-.59.1-1.16.25-1.71.43-.09.03-.1.17-.01.21.83.36,1.42,1.18,1.42,2.14,0,.73-.34,1.37-.86,1.8.06.25.1.51.1.78,0,1.82-1.43,3.3-3.23,3.39-.39.76-1.17,1.29-2.08,1.29-.2,0-.4-.03-.59-.08.06.17.12.34.2.5.41.89.96,1.71,1.63,2.44.67.74,1.46,1.41,2.35,2,.89.6,1.79,1.17,2.72,1.71.92.54,1.82,1.08,2.69,1.64.87.55,1.66,1.13,2.35,1.73.69.6,1.25,1.26,1.68,1.98.43.72.64,1.54.64,2.47,0,.43-.08.87-.25,1.31-.17.45-.41.85-.74,1.22-.32.37-.73.67-1.22.9-.49.23-1.06.35-1.7.35-.89,0-1.63-.14-2.21-.41-.58-.28-1.03-.63-1.36-1.06-.32-.43-.54-.93-.64-1.5-.11-.57-.15-1.14-.11-1.73.06-1.38.41-2.96,1.06-4.74-1.78-.4-3.28-.41-4.51-.05-1.23.37-2.13.94-2.72,1.7-.58.77-.84,1.66-.76,2.69.08,1.03.54,1.99,1.4,2.9.86.91,2.11,1.66,3.75,2.28,1.64.61,3.72.92,6.24.92,1.29,0,2.64-.12,4.07-.37,1.42-.25,2.74-.67,3.94-1.29,1.21-.61,2.2-1.43,2.98-2.46.78-1.03,1.17-2.31,1.17-3.84,0-1.72-.36-3.18-1.08-4.4Z"/>
        </g>
        <circle class="cls-2" cx="16.54" cy="16.8" r="1.21"/>
        <circle class="cls-2" cx="18.66" cy="12.96" r=".64"/>
        <circle class="cls-2" cx="19.27" cy="15.05" r=".33"/>
      </g>
    </g>
  </g>
</svg>