<?xml version="1.0" encoding="utf-8"?>
<!-- Generator: Adobe Adobe Illustrator 24.2.0, SVG Export Plug-In . SVG Version: 6.00 Build 0)  -->
<svg version="1.1" id="Capa_1" xmlns="http://www.w3.org/2000/svg" xmlns:xlink="http://www.w3.org/1999/xlink" x="0px" y="0px"
	 width="800px" height="800px" viewBox="0 0 800 800" style="enable-background:new 0 0 800 800;" xml:space="preserve">
<path d="M735.4,92.6C693.5,50.7,638,27.8,578.8,27.8c-59.2,0-114.8,23.1-156.7,65l-21.9,21.9L378,92.5
	c-41.9-41.9-97.7-65.1-156.9-65.1c-59,0-114.6,23.1-156.4,64.8C22.9,134-0.2,189.6,0,248.8C0,308,23.2,363.5,65.1,405.4l318.5,318.5
	c4.4,4.4,10.3,6.8,16.1,6.8c5.8,0,11.7-2.2,16.1-6.6l319.2-318c41.9-41.9,65-97.5,65-156.7C800.2,190.2,777.3,134.5,735.4,92.6z
	 M702.8,373.7L399.7,675.5L97.4,373.1c-33.2-33.2-51.6-77.3-51.6-124.3s18.1-91.1,51.4-124.1c33.1-33.1,77.2-51.4,124-51.4
	c47,0,91.2,18.3,124.5,51.6l38.3,38.3c9,9,23.4,9,32.4,0l38-38c33.2-33.2,77.5-51.6,124.3-51.6c46.8,0,90.9,18.3,124.1,51.4
	c33.2,33.2,51.4,77.3,51.4,124.3C754.4,296.3,736.1,340.4,702.8,373.7z"/>
</svg>
